<?xml version="1.0"?>
<svg xmlns="http://www.w3.org/2000/svg" xmlns:xlink="http://www.w3.org/1999/xlink" xmlns:svgjs="http://svgjs.com/svgjs" version="1.1" width="512" height="512" x="0" y="0" viewBox="0 0 512 512" style="enable-background:new 0 0 512 512" xml:space="preserve" class=""><g><g xmlns="http://www.w3.org/2000/svg"><g><path d="m256 0c-18.819 0-34.129 15.31-34.129 34.129v75.753c0 18.819 15.31 34.129 34.129 34.129s34.129-15.31 34.129-34.129v-75.753c0-18.819-15.31-34.129-34.129-34.129zm19.164 109.881c0 10.567-8.596 19.164-19.164 19.164s-19.164-8.596-19.164-19.164v-75.752c0-10.567 8.596-19.163 19.164-19.163s19.164 8.596 19.164 19.163z" fill="#ffffff" data-original="#000000"/><path d="m256 367.99c-18.819 0-34.129 15.31-34.129 34.129v75.753c0 18.818 15.31 34.128 34.129 34.128s34.129-15.31 34.129-34.129v-75.753c0-18.818-15.31-34.128-34.129-34.128zm19.164 109.881c0 10.567-8.596 19.163-19.164 19.163s-19.164-8.596-19.164-19.163v-75.753c0-10.567 8.596-19.163 19.164-19.163s19.164 8.596 19.164 19.163z" fill="#ffffff" data-original="#000000"/><path d="m123.246 74.98c-13.307-13.305-34.959-13.306-48.266.001-13.305 13.307-13.305 34.958 0 48.266l53.566 53.565c6.653 6.652 15.393 9.979 24.132 9.979s17.479-3.326 24.132-9.979c.001 0 .001 0 .001-.001 13.305-13.307 13.305-34.958 0-48.266zm42.984 91.249c-7.471 7.471-19.629 7.473-27.102 0l-53.565-53.564c-7.472-7.473-7.472-19.63-.001-27.102 3.736-3.737 8.643-5.604 13.552-5.604 4.906 0 9.815 1.869 13.551 5.604l53.565 53.564c7.471 7.473 7.471 19.63 0 27.102z" fill="#ffffff" data-original="#000000"/><path d="m383.454 335.188c-13.307-13.305-34.959-13.306-48.266.001-13.305 13.307-13.305 34.958 0 48.266l53.566 53.565c6.653 6.652 15.393 9.979 24.132 9.979s17.479-3.326 24.132-9.979c.001 0 .001 0 .001-.001 13.305-13.307 13.305-34.958 0-48.266zm42.984 91.249c-7.471 7.471-19.629 7.473-27.102 0l-53.565-53.564c-7.472-7.473-7.472-19.63-.001-27.102 3.736-3.737 8.643-5.604 13.552-5.604 4.906 0 9.815 1.869 13.551 5.604l53.565 53.564c7.471 7.473 7.471 19.63 0 27.102z" fill="#ffffff" data-original="#000000"/><path d="m109.881 275.163h-37.878c-4.133 0-7.483 3.35-7.483 7.483s3.35 7.483 7.483 7.483h37.879c18.818 0 34.129-15.31 34.129-34.129s-15.31-34.129-34.129-34.129h-75.753c-18.819 0-34.129 15.31-34.129 34.129s15.31 34.129 34.129 34.129h3.13c4.133 0 7.483-3.35 7.483-7.483s-3.35-7.483-7.483-7.483h-3.13c-10.567 0-19.163-8.596-19.163-19.163s8.596-19.164 19.163-19.164h75.753c10.567 0 19.163 8.596 19.163 19.164s-8.596 19.163-19.164 19.163z" fill="#ffffff" data-original="#000000"/><path d="m477.871 221.871h-75.753c-18.818 0-34.129 15.31-34.129 34.129s15.31 34.129 34.129 34.129h75.753c18.819 0 34.129-15.31 34.129-34.129s-15.31-34.129-34.129-34.129zm0 53.292h-75.753c-10.567 0-19.163-8.596-19.163-19.163s8.596-19.164 19.163-19.164h75.753c10.567 0 19.163 8.596 19.163 19.164s-8.596 19.163-19.163 19.163z" fill="#ffffff" data-original="#000000"/><path d="m176.811 335.188c-13.307-13.305-34.959-13.305-48.266 0l-53.565 53.566c-13.305 13.307-13.305 34.958.001 48.266 6.653 6.652 15.393 9.979 24.132 9.979s17.48-3.326 24.133-9.979l53.565-53.566c13.306-13.307 13.306-34.958 0-48.266.001 0 .001 0 0 0zm-10.582 37.684-53.564 53.565c-7.473 7.473-19.631 7.47-27.102.001-7.472-7.473-7.472-19.63 0-27.102l53.564-53.565c3.736-3.736 8.644-5.604 13.552-5.604s9.815 1.869 13.551 5.603c7.471 7.473 7.471 19.63-.001 27.102z" fill="#ffffff" data-original="#000000"/><path d="m359.322 186.791c8.74 0 17.48-3.326 24.133-9.98l5.426-5.427c2.922-2.922 2.922-7.66-.001-10.582-2.922-2.922-7.66-2.923-10.582.001l-5.425 5.426c-7.473 7.473-19.631 7.47-27.102.001-7.472-7.473-7.472-19.63 0-27.102l53.564-53.565c7.473-7.473 19.631-7.47 27.102-.001 7.472 7.473 7.472 19.63 0 27.102l-23.696 23.696c-2.922 2.923-2.922 7.66 0 10.583 2.923 2.921 7.66 2.921 10.583 0l23.696-23.697c13.305-13.307 13.305-34.958-.001-48.266-13.307-13.305-34.959-13.305-48.266 0l-53.565 53.566c-13.305 13.307-13.305 34.958.001 48.266 6.654 6.652 15.392 9.979 24.133 9.979z" fill="#ffffff" data-original="#000000"/></g></g></g></svg>
