<svg width="328" height="106" viewBox="0 0 328 106" fill="none" xmlns="http://www.w3.org/2000/svg">
<path d="M124.373 84V22.1818H166.028V32.9577H137.443V47.6879H163.885V58.4638H137.443V73.2241H166.148V84H124.373ZM189.036 22.1818V84H176.177V22.1818H189.036ZM199.336 84V37.6364H212.195V84H199.336ZM205.796 31.6598C203.884 31.6598 202.244 31.0259 200.876 29.7582C199.528 28.4703 198.854 26.9309 198.854 25.1399C198.854 23.3691 199.528 21.8498 200.876 20.582C202.244 19.2942 203.884 18.6502 205.796 18.6502C207.708 18.6502 209.338 19.2942 210.686 20.582C212.054 21.8498 212.738 23.3691 212.738 25.1399C212.738 26.9309 212.054 28.4703 210.686 29.7582C209.338 31.0259 207.708 31.6598 205.796 31.6598ZM247.157 37.6364V47.2955H219.236V37.6364H247.157ZM225.574 26.5284H238.433V69.7528C238.433 70.9401 238.614 71.8658 238.976 72.5298C239.339 73.1738 239.842 73.6265 240.486 73.8881C241.15 74.1497 241.914 74.2805 242.78 74.2805C243.383 74.2805 243.987 74.2302 244.591 74.1296C245.195 74.0089 245.657 73.9183 245.979 73.858L248.002 83.4265C247.358 83.6277 246.452 83.8591 245.285 84.1207C244.118 84.4025 242.699 84.5735 241.029 84.6339C237.93 84.7546 235.213 84.3421 232.879 83.3963C230.565 82.4505 228.764 80.9815 227.476 78.9893C226.188 76.9972 225.554 74.4818 225.574 71.4432V26.5284ZM275.983 84.9055C271.294 84.9055 267.239 83.9094 263.818 81.9173C260.418 79.9049 257.792 77.1078 255.94 73.5259C254.089 69.9239 253.163 65.7483 253.163 60.9993C253.163 56.21 254.089 52.0244 255.94 48.4425C257.792 44.8404 260.418 42.0433 263.818 40.0511C267.239 38.0388 271.294 37.0327 275.983 37.0327C280.672 37.0327 284.716 38.0388 288.117 40.0511C291.538 42.0433 294.174 44.8404 296.025 48.4425C297.877 52.0244 298.802 56.21 298.802 60.9993C298.802 65.7483 297.877 69.9239 296.025 73.5259C294.174 77.1078 291.538 79.9049 288.117 81.9173C284.716 83.9094 280.672 84.9055 275.983 84.9055ZM276.043 74.9446C278.176 74.9446 279.957 74.3409 281.386 73.1335C282.815 71.906 283.891 70.2358 284.616 68.1229C285.36 66.0099 285.733 63.6052 285.733 60.9087C285.733 58.2122 285.36 55.8075 284.616 53.6946C283.891 51.5817 282.815 49.9115 281.386 48.6839C279.957 47.4564 278.176 46.8427 276.043 46.8427C273.89 46.8427 272.079 47.4564 270.61 48.6839C269.161 49.9115 268.064 51.5817 267.32 53.6946C266.595 55.8075 266.233 58.2122 266.233 60.9087C266.233 63.6052 266.595 66.0099 267.32 68.1229C268.064 70.2358 269.161 71.906 270.61 73.1335C272.079 74.3409 273.89 74.9446 276.043 74.9446ZM314.68 84.7848C312.687 84.7848 310.977 84.0805 309.548 82.6719C308.14 81.2431 307.435 79.5327 307.435 77.5405C307.435 75.5684 308.14 73.8781 309.548 72.4695C310.977 71.0608 312.687 70.3565 314.68 70.3565C316.611 70.3565 318.302 71.0608 319.751 72.4695C321.199 73.8781 321.924 75.5684 321.924 77.5405C321.924 78.8686 321.582 80.0861 320.898 81.1928C320.234 82.2795 319.358 83.1548 318.272 83.8189C317.185 84.4628 315.988 84.7848 314.68 84.7848Z" fill="white"/>
<g clip-path="url(#clip0_608_54)">
<path d="M91.762 87.9885C99.2224 79.1569 103.722 67.7437 103.722 55.2775C103.722 27.2643 81.013 4.55508 52.9998 4.55508C24.9866 4.55508 2.27753 27.2643 2.27753 55.2775C2.27753 67.801 6.81876 79.2621 14.3408 88.1102L91.762 87.9885Z" fill="#FF4155"/>
<path d="M70.6345 78.6557C64.0319 89.829 53.3861 89.9269 53.3861 89.9269C53.3861 89.9269 42.7495 89.829 36.1466 78.6687C35.9953 78.8522 35.8394 79.0304 35.6731 79.1967C34.7872 79.401 33.9146 79.6265 33.0511 79.8677C33.526 80.0745 33.9393 80.4262 34.2152 80.8976C38.2753 87.8319 45.3541 96.1146 53.4089 96.1146C61.4636 96.1146 68.5425 87.8319 72.6025 80.8976C72.8766 80.4298 73.286 80.0797 73.7565 79.872C72.8878 79.629 72.01 79.4023 71.1187 79.1967C70.9486 79.0267 70.7892 78.8439 70.6345 78.6557V78.6557Z" fill="#FCAD6D"/>
<path d="M47.3824 88.5387C43.8738 87.138 39.4924 84.3242 36.1464 78.6689C35.995 78.8524 35.8391 79.0308 35.6729 79.1969C34.787 79.4014 33.9144 79.6267 33.0508 79.8681C33.5258 80.0749 33.939 80.4266 34.215 80.898C36.5675 84.9161 39.9338 89.3865 43.9163 92.4363C44.1229 92.3572 44.2995 92.2808 44.4388 92.2061C45.9824 91.3784 46.9081 89.682 47.3824 88.5387Z" fill="#FD995B"/>
<path d="M80.4964 21.1923C80.4964 15.534 77.2365 13.1893 75.0803 12.2575C73.9935 11.7877 73.1449 10.931 72.7133 9.86151C71.7698 7.52351 69.102 3.47232 61.6423 0.99664C50.6748 -2.64338 40.9259 4.75384 35.6857 6.1629C32.2397 7.08936 29.5317 5.04555 28.0811 3.53733C27.468 2.89988 26.3782 3.09283 26.0302 3.89446C24.8975 6.50347 23.2473 11.6345 24.7572 16.9706C24.8497 17.2975 24.5185 17.589 24.187 17.4753C23.7489 17.3252 23.3554 17.1852 23.0392 17.0705C22.7154 16.9534 22.3925 17.2459 22.4954 17.5639C23.7715 21.5083 25.0085 23.7583 26.1186 24.9719C26.6099 25.5089 26.9383 26.1679 27.0231 26.8791C27.1881 28.2643 27.4651 29.7409 27.9217 31.1087C28.5955 33.1283 29.0181 35.221 29.1398 37.3466C29.1413 37.3714 29.1423 37.3859 29.1431 37.3888H78.1938C78.1961 37.3787 78.1988 37.3433 78.2019 37.2867C78.3209 35.2024 78.7275 33.1436 79.396 31.1659C80.8858 26.7594 80.4964 21.1923 80.4964 21.1923V21.1923Z" fill="#41416B"/>
<path d="M42.4803 23.7324C42.4803 23.7324 47.0373 18.274 43.8624 12.114C40.6876 5.95399 48.3641 1.09021 48.3641 1.09021C43.0867 2.63508 38.6597 5.36333 35.6857 6.16289C32.2399 7.08956 29.5317 5.04554 28.0811 3.53732C27.468 2.89987 26.3782 3.09282 26.0302 3.89445C24.8975 6.50346 23.2473 11.6345 24.7572 16.9705C24.8497 17.2974 24.5185 17.5889 24.187 17.4753C23.7489 17.3252 23.3554 17.1852 23.0392 17.0705C22.7154 16.9534 22.3925 17.2459 22.4954 17.5639C23.7715 21.5082 25.0085 23.7585 26.1186 24.9719C26.6099 25.5089 26.9383 26.1679 27.0231 26.8791C27.1881 28.2643 27.4652 29.7406 27.9217 31.1087C28.5955 33.1283 29.0181 35.221 29.1398 37.3465C29.1413 37.3714 29.1423 37.3859 29.1431 37.3888H39.487L42.4803 23.7324Z" fill="#35355E"/>
<path d="M79.761 37.1702C78.6611 36.1621 76.4698 36.6731 75.5225 37.2905C75.7301 38.583 75.7417 39.9051 75.5626 41.2108L74.4447 49.3531C74.4447 50.0094 74.424 50.6535 74.3859 51.2862C77.1121 52.1085 78.466 49.661 78.6942 47.9816C78.7923 47.2586 78.953 46.546 79.1755 45.8506C79.901 43.5859 82.517 39.6958 79.761 37.1702Z" fill="#FCAD6D"/>
<path d="M77.6907 44.8742C76.6789 44.8742 75.7852 44.3784 75.232 43.6188L74.4447 49.3531C74.4447 50.0094 74.424 50.6535 74.3859 51.2862C77.1121 52.1085 78.466 49.6612 78.6942 47.9815C78.7923 47.2586 78.953 46.546 79.1757 45.8506C79.3633 45.2647 79.6776 44.5693 79.9927 43.8175C79.4347 44.4637 78.6114 44.8742 77.6907 44.8742V44.8742Z" fill="#FD995B"/>
<path d="M27.0122 37.1702C28.1121 36.1621 30.3033 36.6731 31.2507 37.2905C31.0431 38.583 31.0313 39.9051 31.2107 41.2108L32.3287 49.3531C32.3287 50.0094 32.3494 50.6535 32.3875 51.2862C29.6615 52.1085 28.3073 49.661 28.0792 47.9816C27.9811 47.2586 27.8204 46.546 27.5978 45.8506C26.8722 43.5859 24.2562 39.6958 27.0122 37.1702Z" fill="#FCAD6D"/>
<path d="M74.1164 33.0616C73.4394 31.9996 73.1417 30.7433 73.2323 29.4906C73.2872 28.732 73.3236 27.82 73.304 26.8344C73.2961 26.7048 73.292 26.5642 73.292 26.411C73.2816 26.1238 73.2657 25.8315 73.2441 25.5359C72.9787 22.8972 71.5606 20.9969 70.4312 19.8798C69.677 19.1336 68.5141 18.987 67.5851 19.4992C53.6234 27.1979 42.0526 24.3537 35.8228 21.5497C35.068 21.2099 34.1972 21.6503 33.9989 22.454C33.3774 24.9727 33.409 27.6964 33.5432 29.5214C33.6345 30.7644 33.3285 32.0079 32.6567 33.0619C32.2695 33.6693 31.9598 34.3123 31.712 34.9487C30.9083 37.013 30.6741 39.2521 30.9752 41.4443L32.0933 49.5885C32.0933 49.6032 32.094 49.6173 32.094 49.632C33.2436 52.9851 35.5698 57.7919 39.7262 59.1563L39.7788 59.1714C42.2801 59.8902 44.214 61.8632 45.034 64.3795C46.1922 67.9336 49.479 68.8785 53.3859 68.8785C57.2947 68.8785 60.5792 67.9329 61.7373 64.3807C62.5578 61.8642 64.4913 59.8904 66.993 59.1714L67.0456 59.1563C71.2024 57.7917 73.5292 52.9838 74.6791 49.6308C74.6791 49.6165 74.6797 49.6026 74.6797 49.5885L75.7977 41.4462C76.0958 39.2755 75.8697 37.0584 75.0846 35.0102C74.8333 34.3533 74.5161 33.6885 74.1164 33.0616Z" fill="#F9BA8F"/>
<path d="M29.0825 44.8742C30.0942 44.8742 30.988 44.3784 31.5412 43.6188L32.3285 49.3531C32.3285 50.0094 32.3492 50.6535 32.3871 51.2862C29.6609 52.1085 28.3069 49.6612 28.0788 47.9815C27.9806 47.2586 27.82 46.546 27.5972 45.8506C27.4096 45.2647 27.0954 44.5693 26.7803 43.8175C27.3384 44.4637 28.1618 44.8742 29.0825 44.8742V44.8742Z" fill="#FD995B"/>
<path d="M40.2893 41.4441C39.9342 38.1828 40.5702 35.144 41.6223 33.0618C42.155 32.0078 42.3977 30.7644 42.3252 29.5214C42.2368 28.0024 42.2049 25.8605 42.4803 23.7324C39.8684 23.172 37.6297 22.3621 35.8337 21.5546C35.0739 21.213 34.1986 21.6449 33.999 22.4536C33.3773 24.9725 33.4092 27.6964 33.5431 29.5214C33.6344 30.7644 33.3285 32.0076 32.6566 33.0618C31.3116 35.1721 30.5319 38.2159 30.9751 41.4441L32.0935 49.5883C32.0935 49.603 32.0941 49.6173 32.0943 49.6318C33.244 52.9849 35.5702 57.7915 39.7266 59.1561L39.7791 59.1712C40.9698 59.5134 42.0296 60.1422 42.9041 60.9759C41.8476 57.6888 41.1762 53.8931 41.1762 49.5883L40.2893 41.4441Z" fill="#FCAD6D"/>
<path d="M61.015 41.1907C61.015 40.8075 61.0866 40.4429 61.2148 40.1115C60.7166 40.356 60.3144 40.6328 60.0281 40.8665C59.3598 41.4114 58.1981 42.1027 57.5619 42.4681C57.4416 42.5373 57.4907 42.7209 57.6294 42.7209H57.6921C58.2824 42.7209 58.8695 42.813 59.4302 42.9977C60.4026 43.318 61.333 43.4772 62.1934 43.5298C61.4864 43.0449 61.015 42.1791 61.015 41.1907V41.1907Z" fill="#FFF5EE"/>
<path d="M68.9273 41.7903C67.7655 40.7005 66.6487 40.0715 65.6158 39.7531C65.8481 40.1715 65.9825 40.6636 65.9825 41.1907C65.9825 42.0522 65.6241 42.8205 65.0641 43.3246C65.9096 43.1499 66.5696 42.9068 66.9783 42.7207C67.8166 42.3389 68.4507 42.1837 68.8277 42.1205C68.9847 42.0944 69.0433 41.8992 68.9273 41.7903V41.7903Z" fill="#FFF5EE"/>
<path d="M61.0586 40.1908C60.917 40.5144 60.838 40.8715 60.838 41.2475C60.838 42.2201 61.3646 43.0691 62.1478 43.5269C63.2776 43.6006 64.2881 43.4894 65.116 43.3141C65.7245 42.8306 66.115 42.0849 66.115 41.2475C66.115 40.6988 65.9475 40.1893 65.6607 39.7674C63.7687 39.1687 62.1551 39.6152 61.0586 40.1908Z" fill="#41416B"/>
<path d="M64.4606 41.4131C64.4606 41.9717 64.0078 42.4244 63.4493 42.4244C62.8907 42.4244 62.4379 41.9717 62.4379 41.4131C62.4379 40.8545 62.8907 40.4017 63.4493 40.4017C64.0078 40.4017 64.4606 40.8545 64.4606 41.4131Z" fill="#35355E"/>
<path d="M71.1622 38.0447C71.011 37.0511 70.409 34.7419 68.0598 34.208C65.6876 33.6689 60.6856 34.685 58.6604 35.1429C58.1209 35.2649 57.6933 35.6752 57.5486 36.2091L57.1315 37.7478C57.0961 37.8784 57.2163 37.9977 57.3466 37.9612C58.8819 37.5304 65.9518 35.6187 68.1054 36.3095C69.7477 36.8362 70.5912 37.6573 70.964 38.131C71.0349 38.2209 71.1796 38.1579 71.1622 38.0447V38.0447Z" fill="#41416B"/>
<path d="M46.2969 41.1907C46.2969 40.8075 46.2253 40.4429 46.0971 40.1115C46.5952 40.356 46.9975 40.6328 47.284 40.8665C47.9523 41.4114 49.114 42.1027 49.75 42.4681C49.8703 42.5373 49.8212 42.7209 49.6825 42.7209H49.6198C49.0295 42.7209 48.4424 42.813 47.8817 42.9977C46.9093 43.318 45.9789 43.4772 45.1185 43.5298C45.8255 43.0449 46.2969 42.1791 46.2969 41.1907V41.1907Z" fill="#FFF5EE"/>
<path d="M38.3846 41.7903C39.5464 40.7005 40.6632 40.0715 41.696 39.7531C41.4638 40.1715 41.3294 40.6636 41.3294 41.1907C41.3294 42.0522 41.6878 42.8205 42.2478 43.3246C41.4023 43.1499 40.7423 42.9068 40.3336 42.7207C39.4951 42.3389 38.8612 42.1837 38.4842 42.1205C38.3272 42.0944 38.2686 41.8992 38.3846 41.7903V41.7903Z" fill="#FFF5EE"/>
<path d="M46.2532 40.1908C46.3948 40.5144 46.4739 40.8715 46.4739 41.2475C46.4739 42.2201 45.9472 43.0691 45.164 43.5269C44.0343 43.6006 43.0237 43.4894 42.1958 43.3141C41.5874 42.8306 41.1969 42.0849 41.1969 41.2475C41.1969 40.6988 41.3644 40.1893 41.6511 39.7674C43.5432 39.1687 45.1568 39.6152 46.2532 40.1908V40.1908Z" fill="#41416B"/>
<path d="M42.8513 41.4131C42.8513 41.9717 43.3041 42.4244 43.8627 42.4244C44.4212 42.4244 44.874 41.9717 44.874 41.4131C44.874 40.8545 44.4212 40.4017 43.8627 40.4017C43.3041 40.4017 42.8513 40.8545 42.8513 41.4131Z" fill="#35355E"/>
<path d="M36.1495 38.0447C36.3006 37.0511 36.9027 34.7419 39.2518 34.208C41.624 33.6689 46.6261 34.685 48.6513 35.1429C49.1908 35.2649 49.6183 35.6752 49.763 36.2091L50.1802 37.7478C50.2156 37.8784 50.0953 37.9977 49.9649 37.9612C48.4295 37.5304 41.3598 35.6187 39.2061 36.3095C37.5637 36.8362 36.7203 37.6573 36.3474 38.131C36.277 38.2209 36.1323 38.1579 36.1495 38.0447V38.0447Z" fill="#41416B"/>
<path d="M59.5819 61.6497L57.3236 62.5402C57.0696 62.6404 56.7891 62.6518 56.5278 62.5731L53.9252 61.7882L51.3228 62.5731C51.0614 62.6518 50.7808 62.6404 50.5268 62.5402L48.2685 61.6497C47.6447 61.4038 47.3383 60.6984 47.5843 60.0746C47.8296 59.4525 48.5335 59.1438 49.1594 59.3904L51.0253 60.1262L53.5633 59.3608C53.8093 59.284 54.0656 59.2896 54.2873 59.361L56.8249 60.1262L58.6909 59.3904C59.3136 59.1453 60.0192 59.4492 60.266 60.0746C60.5123 60.6986 60.2059 61.4038 59.5819 61.6497Z" fill="#FCAD6D"/>
<path d="M62.6048 34.3916C61.0314 34.6295 59.5552 34.9406 58.6604 35.1429C58.1209 35.2649 57.6934 35.6752 57.5487 36.2091L57.1315 37.7478C57.0961 37.8784 57.2164 37.9977 57.3468 37.9612C58.1981 37.7223 60.7506 37.0288 63.2234 36.5754C62.2063 36.3789 61.8338 35.1017 62.6048 34.3916Z" fill="#35355E"/>
<path d="M43.2693 34.2016C41.7423 34.0312 40.2597 33.9792 39.2521 34.2082C36.9027 34.7421 36.3009 37.0511 36.1497 38.0449C36.1325 38.1579 36.277 38.2211 36.3479 38.1312C36.7207 37.6575 37.5642 36.8364 39.2065 36.3098C40.0262 36.0468 41.5582 36.1613 43.2259 36.4271C42.3582 35.9236 42.3861 34.668 43.2693 34.2016V34.2016Z" fill="#35355E"/>
<path d="M75.1422 46.2203C75.1422 46.2203 73.1874 56.7663 66.7527 58.8786L66.7013 58.8933C64.2532 59.5968 62.3613 61.5282 61.5585 63.9909C60.4252 67.4671 57.211 68.3921 53.3861 68.3921C49.5629 68.3921 46.3468 67.4675 45.2133 63.9896C44.4109 61.5274 42.5184 59.5966 40.0709 58.8933L40.0195 58.8786C33.5848 56.7663 31.6311 46.2203 31.6311 46.2203C26.6849 90.3207 53.3861 90.5641 53.3861 90.5641C53.3861 90.5641 80.0886 90.3207 75.1422 46.2203V46.2203Z" fill="#41416B"/>
<path d="M54.7047 64.5673H53.1459C52.4752 64.5673 51.9317 65.1109 51.9317 65.7815C51.9317 66.4523 52.4754 66.9957 53.1459 66.9957H54.7047C55.3755 66.9957 55.9189 66.4521 55.9189 65.7815C55.9189 65.1109 55.3753 64.5673 54.7047 64.5673Z" fill="#FCAD6D"/>
<path d="M40.0195 59.3012L40.0709 59.3159C41.7335 59.7937 43.1387 60.8388 44.1212 62.2311L45.2562 61.4771C45.9081 61.044 46.6766 60.8086 47.459 60.8336C50.1785 60.9208 52.5611 60.1283 53.5 59.7653C53.7741 59.6593 54.0767 59.6593 54.3508 59.7653C55.2897 60.1283 57.6723 60.9208 60.3918 60.8336C61.1742 60.8086 61.9427 61.044 62.5946 61.4771L63.0159 61.757C63.9689 60.603 65.2341 59.7378 66.7015 59.3161L66.7528 59.3014C67.3584 59.1026 67.9244 58.8289 68.4528 58.4965C66.6044 55.3343 62.3688 50.8914 53.9254 53.9538C45.0688 50.7415 40.8414 55.7872 39.1434 58.9505C39.4256 59.0844 39.7177 59.202 40.0195 59.3012V59.3012Z" fill="#41416B"/>
<path d="M49.8515 53.2905L50.7773 53.0954C52.4973 54.7945 55.3558 54.7916 57.0731 53.0954L57.999 53.2905C58.6644 53.4298 59.3192 53.0043 59.4596 52.3377C59.6 51.6713 59.1735 51.0175 58.507 50.8771L56.846 50.5274C56.305 50.4136 55.7773 50.6307 55.5221 51.1202C54.8502 52.159 53.0015 52.1605 52.3286 51.1202C52.0733 50.6307 51.5454 50.414 51.0046 50.5274L49.3434 50.8771C48.677 51.0175 48.2505 51.6715 48.3909 52.3377C48.531 53.0041 49.1852 53.4302 49.8515 53.2905Z" fill="#FCAD6D"/>
<path d="M53 106C68.6447 106 82.6332 98.9152 91.9374 87.781C90.6784 87.4854 89.7104 86.8372 87.9825 85.8629C83.7234 83.4613 79.4068 81.2273 74.8072 79.7689C73.7282 79.4269 72.5508 79.8814 71.979 80.8581C68.0481 87.5717 61.1943 95.5911 53.3958 95.5911C45.5974 95.5911 38.7436 87.5719 34.8127 80.8581C34.2407 79.8814 33.0635 79.4267 31.9845 79.7689C27.3849 81.2271 23.0682 83.4613 18.8094 85.8629C16.7811 87.0065 15.8002 87.7015 14.1663 87.9036C23.4705 98.9669 37.4128 106 53 106Z" fill="#FFF5EE"/>
<path d="M34.8127 80.8583C34.2407 79.8816 33.0635 79.4271 31.9845 79.7692C27.3848 81.2275 23.0682 83.4616 18.8094 85.8631C16.7811 87.0068 15.8002 87.7018 14.1663 87.9038C18.2602 92.7715 23.2525 96.8579 28.8871 99.9093C33.5446 94.6019 42.4882 93.2518 44.4388 92.2061C44.439 92.2061 44.439 92.2059 44.4393 92.2059C40.4816 89.2508 37.1362 84.8269 34.8127 80.8583Z" fill="#FCE6D6"/>
<path d="M46.9673 53.0443C42.6935 53.6861 40.3156 56.7663 39.1434 58.9501C39.4258 59.0842 39.7177 59.2018 40.0195 59.301L40.0709 59.3157C41.7335 59.7935 43.1387 60.8386 44.1214 62.2309L45.2564 61.4769C45.9083 61.0438 46.6768 60.8084 47.4592 60.8335C48.0207 60.8515 48.5664 60.8306 49.0896 60.785C44.3113 57.912 46.9663 53.046 46.9673 53.0443V53.0443Z" fill="#35355E"/>
<path d="M52.4182 78.3739C48.1885 73.0911 53.9252 68.3923 53.9252 68.3923L53.9221 68.3853C53.7446 68.3897 53.5662 68.3923 53.3859 68.3923C49.5626 68.3923 46.3464 67.4677 45.2131 63.9898C44.4106 61.5276 42.5184 59.5968 40.0706 58.8933L40.0193 58.8786C33.5846 56.7663 31.6308 46.2203 31.6308 46.2203C26.6846 90.3207 53.3859 90.5641 53.3859 90.5641C53.3859 90.5641 58.1534 85.5372 52.4182 78.3739V78.3739Z" fill="#35355E"/>
</g>
<defs>
<clipPath id="clip0_608_54">
<rect width="106" height="106" fill="white"/>
</clipPath>
</defs>
</svg>
